#!OML:ASF E:\id_vita\Project 1\Capture day 1\Session 1\Female.ASF
:FULLY-SPECIFIED
:DEGREES
797
root 16.4585 12.6908 -0.761429 -100.898 -87.4969 -204.423
lowerback -1.16738 2.99159 -6.7835
upperback -0.914976 4.02811 -1.94433
thorax -0.617193 2.04325 1.79847
lowerneck 4.97648 -1.57654 3.44831
upperneck 9.80551 -2.60948 5.10091
head 2.28069 -1.16579 1.01877
rclavicle -3.22031e-014 -1.78906e-014
rhumerus 5.80098 23.8015 -70.9539
rradius 45.9122
rwrist 16.4085
rhand -43.5221 625.792
rfingers 7.12502
rthumb -16.3611 64.8786
lclavicle -3.22031e-014 -1.78906e-014
lhumerus 20.9903 -45.5598 64.6152
lradius 48.6983
lwrist -15.19
lhand -60.2173 -270.447
lfingers 7.12502
lthumb -32.3587 -836.686
rfemur -8.71858 4.44609 22.9229
rtibia 15.9648
rfoot -6.47744 3.04003
rtoes -9.61568
lfemur -102.261 -2.57271 -29.6961
ltibia 99.2693
lfoot -32.0767 3.60712
ltoes -13.4824
798
root 16.3978 12.6692 -0.756218 -107.293 -87.6547 -197.878
lowerback -1.4452 3.06404 -6.61694
upperback -0.909459 4.15065 -1.85757
thorax -0.45999 2.10055 1.81207
lowerneck 4.61135 -1.57498 3.29217
upperneck 9.93104 -2.64339 5.19453
head 2.3905 -1.17531 1.07273
rclavicle 1.23246e-014 1.00187e-013
rhumerus 5.95037 23.7979 -70.7435
rradius 45.9503
rwrist 16.4071
rhand -43.4281 625.975
rfingers 7.12502
rthumb -16.2705 64.6881
lclavicle 1.23246e-014 1.00187e-013
lhumerus 21.4018 -45.5064 64.4784
lradius 48.4933
lwrist -15.2661
lhand -59.7754 -270.365
lfingers 7.12502
lthumb -31.938 -836.853
rfemur -8.33185 4.83032 23.0784
rtibia 15.1956
rfoot -5.3381 3.59144
rtoes -8.75235
lfemur -102.373 -2.26369 -29.5825
ltibia 99.5833
lfoot -32.1844 3.34831
ltoes -13.5639
799
root 16.3462 12.6546 -0.750311 -113.682 -88.1075 -191.581
lowerback -1.32447 3.08298 -6.07029
upperback -0.85471 4.16685 -1.70963
thorax -0.443574 2.10661 1.65773
lowerneck 4.25533 -1.53808 3.14585
upperneck 10.0946 -2.62235 5.17347
head 2.50892 -1.15902 1.08903
rclavicle 5.32743e-014 3.97569e-014
rhumerus 6.14268 23.7235 -70.6709
rradius 45.9686
rwrist 16.5842
rhand -43.3046 627.113
rfingers 7.12502
rthumb -16.1517 63.5396
lclavicle 5.32743e-014 3.97569e-014
lhumerus 21.8683 -45.5824 64.0962
lradius 48.4686
lwrist -14.9884
lhand -59.5932 -270.391
lfingers 7.12502
lthumb -31.7645 -836.862
rfemur -7.98781 4.90473 23.5554
rtibia 14.9426
rfoot -4.27153 4.40462
rtoes -7.05843
lfemur -102.309 -2.05648 -29.176
ltibia 99.9164
lfoot -32.2706 2.87969
ltoes -13.0325
800
root 16.2703 12.6551 -0.747266 -105.322 -87.4996 -199.817
lowerback -1.44296 2.99121 -6.77655
upperback -0.851592 4.05587 -1.93789
thorax -0.399431 2.04975 1.81997
lowerneck 4.02231 -1.47792 3.19045
upperneck 10.1057 -2.54792 5.12219
head 2.55114 -1.11709 1.0641
rclavicle 2.10712e-014 7.55382e-015
rhumerus 6.27077 23.5751 -70.8413
rradius 46.0314
rwrist 16.6657
rhand -42.9863 627.992
rfingers 7.12502
rthumb -15.8451 62.6367
lclavicle 2.10712e-014 7.55382e-015
lhumerus 21.9506 -45.4417 63.8716
lradius 48.5785
lwrist -15.0648
lhand -59.7837 -270.393
lfingers 7.12502
lthumb -31.9459 -836.824
rfemur -8.03837 5.09911 22.7315
rtibia 14.9585
rfoot -3.9137 4.29336
rtoes -8.60574
lfemur -101.861 -2.17873 -29.8638
ltibia 99.964
lfoot -32.4343 2.80944
ltoes -12.797
801
root 16.2019 12.6418 -0.740356 -102.672 -87.2423 -202.404
lowerback -1.52398 2.9374 -7.05516
upperback -0.942945 3.98607 -2.06871
thorax -0.452983 2.01771 1.84057
lowerneck 4.04133 -1.44874 3.32656
upperneck 10.1551 -2.5133 5.1253
head 2.56239 -1.09571 1.04259
rclavicle 4.41302e-014 4.73108e-014
rhumerus 6.13477 23.7054 -70.9594
rradius 46.0636
rwrist 16.5197
rhand -43.159 627.642
rfingers 7.12502
rthumb -16.0114 62.9992
lclavicle 4.41302e-014 4.73108e-014
lhumerus 21.6555 -45.36 64.0237
lradius 48.6505
lwrist -15.3687
lhand -59.9343 -270.699
lfingers 7.12502
lthumb -32.0893 -836.489
rfemur -7.85339 5.19699 22.3544
rtibia 14.7993
rfoot -3.28541 4.62215
rtoes -9.21808
lfemur -101.562 -2.32049 -30.1124
ltibia 100.088
lfoot -32.308 2.89947
ltoes -13.0997
802
root 16.1346 12.6321 -0.729137 -101.994 -87.2564 -203.235
lowerback -1.41083 2.92055 -6.99176
upperback -0.993331 3.94893 -2.10182
thorax -0.558677 2.00259 1.76349
lowerneck 4.2676 -1.42828 3.26512
upperneck 10.1593 -2.49821 5.32967
head 2.52861 -1.09193 1.12048
rclavicle -6.48038e-014 -1.23246e-014
rhumerus 5.96775 23.8886 -70.9843
rradius 46.085
rwrist 16.4979
rhand -43.4925 627.053
rfingers 7.12502
rthumb -16.3326 63.6152
lclavicle -6.48038e-014 -1.23246e-014
lhumerus 21.5454 -45.5602 63.9807
lradius 48.7104
lwrist -15.2329
lhand -59.8586 -270.69
lfingers 7.12502
lthumb -32.0172 -836.513
rfemur -7.56228 5.28422 22.2587
rtibia 14.8216
rfoot -2.56544 5.11416
rtoes -8.58114
lfemur -101.091 -2.41884 -30.09
ltibia 100.179
lfoot -32.1739 2.93414
ltoes -13.3419
803
root 16.0643 12.6298 -0.718287 -98.9844 -87.3449 -206.809
lowerback -0.855929 2.94049 -6.88738
upperback -0.836465 3.93369 -2.04199
thorax -0.703432 1.99581 1.74099
lowerneck 4.58188 -1.44458 2.98002
upperneck 9.79991 -2.51121 5.69816
head 2.36451 -1.11508 1.28813
rclavicle -4.21423e-014 4.37326e-014
rhumerus 5.96248 23.7663 -70.8272
rradius 46.128
rwrist 16.5673
rhand -43.2354 626.927
rfingers 7.12502
rthumb -16.085 63.7203
lclavicle -4.21423e-014 4.37326e-014
lhumerus 21.6504 -45.6287 64.0791
lradius 48.6649
lwrist -15.3086
lhand -59.6629 -271.336
lfingers 7.12502
lthumb -31.8308 -835.904
rfemur -6.90894 5.28251 22.2565
rtibia 15.0218
rfoot -1.93263 5.55481
rtoes -7.73245
lfemur -100.046 -2.53521 -30.0424
ltibia 100.218
lfoot -32.2702 2.936
ltoes -13.5108
804
root 16.0058 12.6235 -0.714228 -98.9284 -87.3623 -205.981
lowerback -1.8307 2.91251 -6.96177
upperback -1.06979 3.97373 -2.03027
thorax -0.407353 2.01298 1.84207
lowerneck 4.82777 -1.47809 3.01281
upperneck 9.42525 -2.51392 5.73437
head 2.19758 -1.1278 1.2939
rclavicle -5.04913e-014 1.07344e-014
rhumerus 5.85065 23.6116 -70.7049
rradius 46.2669
rwrist 16.6457
rhand -43.0965 626.679
rfingers 7.12502
rthumb -15.9513 63.9578
lclavicle -5.04913e-014 1.07344e-014
lhumerus 21.7068 -45.6047 64.2748
lradius 48.5843
lwrist -15.571
lhand -59.6147 -272.44
lfingers 7.12502
lthumb -31.7849 -834.809
rfemur -7.95141 5.56848 22.1341
rtibia 15.3246
rfoot -1.10443 6.21353
rtoes -5.69589
lfemur -100.738 -2.59328 -30.0056
ltibia 100.202
lfoot -32.264 2.7464
ltoes -13.5154
805
root 15.9334 12.619 -0.710796 -100.307 -87.1097 -203.974
lowerback -2.60536 2.87732 -7.25467
upperback -1.20046 3.99424 -2.13659
thorax -0.123284 2.0171 1.93463
lowerneck 4.53714 -1.49171 3.3279
upperneck 9.63889 -2.52924 5.4028
head 2.30843 -1.12001 1.13273
rclavicle -5.96354e-014 -4.25399e-014
rhumerus 5.81597 23.5078 -70.7459
rradius 46.4317
rwrist 16.8106
rhand -43.4295 626.078
rfingers 7.12502
rthumb -16.272 64.5853
lclavicle -5.96354e-014 -4.25399e-014
lhumerus 21.8999 -45.6566 63.9834
lradius 48.6708
lwrist -15.4534
lhand -59.706 -272.598
lfingers 7.12502
lthumb -31.872 -834.633
rfemur -8.68921 5.77939 21.7766
rtibia 15.4639
rfoot 0.0231568 6.76582
rtoes -4.22242
lfemur -101.024 -2.58659 -30.2119
ltibia 100.165
lfoot -32.3701 2.81597
ltoes -13.6182
806
root 15.8581 12.6304 -0.701091 -92.1433 -86.9487 -212.443
lowerback -2.16365 2.74842 -7.43745
upperback -1.09313 3.78707 -2.20359
thorax -0.249592 1.91447 1.9434
lowerneck 4.16028 -1.47971 3.3946
upperneck 9.98275 -2.54607 5.25927
head 2.48586 -1.11343 1.07401
rclavicle 1.31198e-014 4.29375e-014
rhumerus 5.91926 23.5502 -70.6766
rradius 46.4397
rwrist 16.8485
rhand -43.8256 625.681
rfingers 7.12502
rthumb -16.6533 65.013
lclavicle 1.31198e-014 4.29375e-014
lhumerus 22.0133 -45.5988 63.838
lradius 48.7275
lwrist -15.4308
lhand -59.5507 -272.973
lfingers 7.12502
lthumb -31.7241 -834.287
rfemur -8.5563 5.38866 21.5323
rtibia 15.8959
rfoot 0.915836 7.47528
rtoes -4.04474
lfemur -100.06 -2.98429 -30.4609
ltibia 100.031
lfoot -32.4984 2.96931
ltoes -13.7789
807
root 15.7844 12.6366 -0.692348 -89.5611 -87.0068 -215.944
lowerback -1.10835 2.7581 -7.35439
upperback -0.894175 3.70806 -2.17494
thorax -0.625059 1.88197 1.87582
lowerneck 4.405 -1.40942 3.38284
upperneck 9.76656 -2.43001 5.31911
head 2.37031 -1.0658 1.09684
rclavicle -1.70955e-014 -6.32135e-014
rhumerus 5.93382 23.8567 -70.5352
rradius 46.41
rwrist 16.5729
rhand -44.0432 626.011
rfingers 7.12502
rthumb -16.8628 64.7014
lclavicle -1.70955e-014 -6.32135e-014
lhumerus 21.7625 -45.4587 64.112
lradius 48.6857
lwrist -15.5802
lhand -59.3867 -273.337
lfingers 7.12502
lthumb -31.5678 -833.954
rfemur -7.60163 5.21178 21.5962
rtibia 16.1511
rfoot 1.54768 7.78882
rtoes -3.45908
lfemur -98.5892 -2.99067 -30.5004
ltibia 100.022
lfoot -32.707 3.01413
ltoes -13.6867
808
root 15.7168 12.6267 -0.682327 -96.2311 -87.0502 -208.479
lowerback -2.12112 2.78494 -7.24508
upperback -1.15154 3.82469 -2.25879
thorax -0.320399 1.93556 1.77684
lowerneck 4.75813 -1.34283 3.63312
upperneck 9.50947 -2.29681 5.26099
head 2.21768 -1.00735 1.0378
rclavicle -4.8901e-014 1.98785e-014
rhumerus 5.86644 24.0543 -70.5361
rradius 46.4458
rwrist 16.493
rhand -44.0789 626.454
rfingers 7.12502
rthumb -16.8971 64.2615
lclavicle -4.8901e-014 1.98785e-014
lhumerus 21.5162 -45.5293 64.1966
lradius 48.7146
lwrist -15.378
lhand -59.7908 -272.394
lfingers 7.12502
lthumb -31.9527 -834.822
rfemur -8.39721 5.5166 21.5226
rtibia 16.1401
rfoot 3.04773 9.08835
rtoes 1.65709
lfemur -99.229 -2.75376 -30.4043
ltibia 100.062
lfoot -32.6727 2.93495
ltoes -13.5729
809
root 15.6511 12.6389 -0.679017 -93.452 -87.0365 -210.961
lowerback -2.31058 2.71867 -7.34041
upperback -1.29373 3.74571 -2.30652
thorax -0.357953 1.89974 1.7854
lowerneck 4.86595 -1.36398 3.962
upperneck 9.54754 -2.29486 4.99057
head 2.20322 -1.00218 0.897036
rclavicle -2.82274e-014 -1.82882e-014
rhumerus 5.81612 24.0904 -70.4997
rradius 46.4621
rwrist 16.5652
rhand -43.858 626.686
rfingers 7.12502
rthumb -16.6845 64.0113
lclavicle -2.82274e-014 -1.82882e-014
lhumerus 21.6158 -45.7954 63.9885
lradius 48.7527
lwrist -15.0929
lhand -60.0935 -272.411
lfingers 7.12502
lthumb -32.2409 -834.746
rfemur -8.62284 5.64309 21.3994
rtibia 16.0014
rfoot 3.49694 8.72936
rtoes -1.42885
lfemur -99.1072 -2.9222 -30.4009
ltibia 99.9771
lfoot -32.7197 2.92578
ltoes -13.4771
810
root 15.5898 12.6518 -0.674736 -87.0845 -87.153 -217.398
lowerback -2.0478 2.64882 -7.29983
upperback -1.29163 3.627 -2.25466
thorax -0.493766 1.84475 1.80167
lowerneck 4.92606 -1.38714 4.03195
upperneck 9.51441 -2.30499 4.83831
head 2.17845 -1.00884 0.837188
rclavicle -6.0033e-014 -5.92378e-014
rhumerus 5.84343 24.0795 -70.3562
rradius 46.4028
rwrist 16.4355
rhand -44.0253 626.177
rfingers 7.12502
rthumb -16.8455 64.5336
lclavicle -6.0033e-014 -5.92378e-014
lhumerus 21.7425 -45.8834 63.9738
lradius 48.7265
lwrist -15.1795
lhand -59.8024 -273.522
lfingers 7.12502
lthumb -31.9637 -833.691
rfemur -8.57457 5.59427 21.4299
rtibia 16.0948
rfoot 4.04508 7.98182
rtoes -3.54976
lfemur -98.6241 -3.22259 -30.2731
ltibia 99.9108
lfoot -32.8001 2.75063
ltoes -12.9829
811
root 15.5195 12.6406 -0.659769 -86.909 -87.2647 -217.309
lowerback -2.49957 2.65183 -7.09683
upperback -1.27568 3.67284 -2.23437
thorax -0.215939 1.85843 1.7361
lowerneck 4.74141 -1.37935 4.00362
upperneck 9.48181 -2.29223 4.74498
head 2.19809 -1.00121 0.81102
rclavicle 4.85035e-014 6.75868e-015
rhumerus 5.90889 23.9615 -70.2481
rradius 46.3055
rwrist 16.4512
rhand -44.5999 625.093
rfingers 7.12502
rthumb -17.3986 65.6658
lclavicle 4.85035e-014 6.75868e-015
lhumerus 21.7649 -45.7664 64.171
lradius 48.7422
lwrist -15.2782
lhand -59.625 -273.29
lfingers 7.12502
lthumb -31.7948 -833.957
rfemur -8.84891 5.57044 21.3889
rtibia 16.2113
rfoot 5.13172 8.73216
rtoes -2.04164
lfemur -98.6261 -3.39191 -30.0858
ltibia 99.9179
lfoot -32.7894 2.5799
ltoes -12.6186
